<mxfile host="app.diagrams.net" modified="2023-07-20T12:40:57.783Z" agent="Mozilla/5.0 (Windows NT 10.0; Win64; x64) AppleWebKit/537.36 (KHTML, like Gecko) Chrome/115.0.0.0 Safari/537.36" version="21.6.3" etag="mKpE2gxmJcbJi21MIzP3" type="github">
  <diagram name="Page-1" id="cbzBaKyIph1Sbvg5qICK">
    <mxGraphModel>
      <root>
        <mxCell id="0" />
        <mxCell id="1" parent="0" />
      </root>
    </mxGraphModel>
  </diagram>
</mxfile>
